<svg width="26" height="20" viewBox="0 0 26 20" fill="none" xmlns="http://www.w3.org/2000/svg">
<path d="M22.1078 1.668C20.4601 0.888773 18.6983 0.322462 16.8564 0C16.6301 0.413385 16.3659 0.969397 16.1837 1.4117C14.2256 1.11407 12.2856 1.11407 10.3636 1.4117C10.1814 0.969397 9.91115 0.413385 9.68291 0C7.83899 0.322462 6.07515 0.890853 4.42743 1.67213C1.10397 6.74839 0.203035 11.6986 0.653504 16.5785C2.8578 18.2423 4.99403 19.253 7.0942 19.9144C7.61275 19.1931 8.07522 18.4263 8.47363 17.6181C7.71484 17.3267 6.98809 16.9671 6.3014 16.5495C6.48357 16.4131 6.66177 16.2705 6.83393 16.1237C11.0223 18.1038 15.573 18.1038 19.7113 16.1237C19.8855 16.2705 20.0637 16.4131 20.2439 16.5495C19.5552 16.9691 18.8264 17.3287 18.0676 17.6202C18.466 18.4263 18.9265 19.1952 19.4471 19.9165C21.5493 19.2551 23.6875 18.2444 25.8918 16.5785C26.4203 10.9214 24.9888 6.01671 22.1078 1.668ZM9.04423 13.5774C7.78693 13.5774 6.75584 12.391 6.75584 10.9462C6.75584 9.50147 7.76491 8.31302 9.04423 8.31302C10.3236 8.31302 11.3546 9.49939 11.3326 10.9462C11.3346 12.391 10.3236 13.5774 9.04423 13.5774ZM17.501 13.5774C16.2437 13.5774 15.2127 12.391 15.2127 10.9462C15.2127 9.50147 16.2217 8.31302 17.501 8.31302C18.7804 8.31302 19.8114 9.49939 19.7894 10.9462C19.7894 12.391 18.7804 13.5774 17.501 13.5774Z" fill="white"/>
</svg>
